<?xml version="1.0" encoding="UTF-8" standalone="no"?>
<svg
   width="50"
   height="50"
   viewBox="0 0 50 50"
   fill="none"
   version="1.1"
   id="svg22"
   sodipodi:docname="Calendar.svg"
   xmlns:inkscape="http://www.inkscape.org/namespaces/inkscape"
   xmlns:sodipodi="http://sodipodi.sourceforge.net/DTD/sodipodi-0.dtd"
   xmlns="http://www.w3.org/2000/svg"
   xmlns:svg="http://www.w3.org/2000/svg">
  <defs
     id="defs26" />
  <sodipodi:namedview
     id="namedview24"
     pagecolor="#ffffff"
     bordercolor="#000000"
     borderopacity="0.25"
     inkscape:showpageshadow="2"
     inkscape:pageopacity="0.0"
     inkscape:pagecheckerboard="0"
     inkscape:deskcolor="#d1d1d1" />
  <path
     d="M16.6661 11.9795C15.8119 11.9795 15.1036 11.2712 15.1036 10.417V4.16699C15.1036 3.31283 15.8119 2.60449 16.6661 2.60449C17.5202 2.60449 18.2286 3.31283 18.2286 4.16699V10.417C18.2286 11.2712 17.5202 11.9795 16.6661 11.9795Z"
     fill="#5B5561"
     id="path2" />
  <path
     d="M33.3339 11.9795C32.4798 11.9795 31.7714 11.2712 31.7714 10.417V4.16699C31.7714 3.31283 32.4798 2.60449 33.3339 2.60449C34.1881 2.60449 34.8964 3.31283 34.8964 4.16699V10.417C34.8964 11.2712 34.1881 11.9795 33.3339 11.9795Z"
     fill="#5B5561"
     id="path4" />
  <path
     d="M17.7083 30.2083C17.4375 30.2083 17.1667 30.1459 16.9167 30.0417C16.6458 29.9375 16.4375 29.7916 16.2292 29.6041C15.8542 29.2083 15.625 28.6875 15.625 28.125C15.625 27.8542 15.6875 27.5833 15.7917 27.3333C15.8958 27.0833 16.0417 26.8542 16.2292 26.6458C16.4375 26.4583 16.6458 26.3125 16.9167 26.2083C17.6667 25.8958 18.6042 26.0625 19.1875 26.6458C19.5625 27.0417 19.7917 27.5833 19.7917 28.125C19.7917 28.25 19.7708 28.3959 19.75 28.5417C19.7292 28.6667 19.6875 28.7917 19.625 28.9167C19.5833 29.0417 19.5208 29.1667 19.4375 29.2917C19.375 29.3958 19.2708 29.5 19.1875 29.6041C18.7917 29.9791 18.25 30.2083 17.7083 30.2083Z"
     fill="#5B5561"
     id="path6" />
  <path
     d="M24.9994 30.2083C24.7286 30.2083 24.4577 30.1458 24.2077 30.0417C23.9369 29.9375 23.7286 29.7916 23.5202 29.6041C23.1452 29.2083 22.9161 28.6875 22.9161 28.125C22.9161 27.8541 22.9786 27.5833 23.0827 27.3333C23.1869 27.0833 23.3327 26.8542 23.5202 26.6458C23.7286 26.4583 23.9369 26.3125 24.2077 26.2083C24.9577 25.875 25.8952 26.0625 26.4786 26.6458C26.8536 27.0417 27.0827 27.5833 27.0827 28.125C27.0827 28.25 27.0619 28.3958 27.0411 28.5417C27.0202 28.6667 26.9786 28.7917 26.9161 28.9167C26.8744 29.0417 26.8119 29.1666 26.7286 29.2916C26.6661 29.3958 26.5619 29.5 26.4786 29.6041C26.0827 29.9791 25.5411 30.2083 24.9994 30.2083Z"
     fill="#5B5561"
     id="path8" />
  <path
     d="M32.2923 30.2083C32.0214 30.2083 31.7506 30.1458 31.5006 30.0417C31.2298 29.9375 31.0214 29.7916 30.8131 29.6041C30.7298 29.5 30.6464 29.3958 30.5631 29.2916C30.4798 29.1666 30.4173 29.0417 30.3756 28.9167C30.3131 28.7917 30.2714 28.6667 30.2506 28.5417C30.2298 28.3958 30.2089 28.25 30.2089 28.125C30.2089 27.5833 30.4381 27.0417 30.8131 26.6458C31.0214 26.4583 31.2298 26.3125 31.5006 26.2083C32.2714 25.875 33.1881 26.0625 33.7714 26.6458C34.1464 27.0417 34.3756 27.5833 34.3756 28.125C34.3756 28.25 34.3548 28.3958 34.3339 28.5417C34.3131 28.6667 34.2714 28.7917 34.2089 28.9167C34.1673 29.0417 34.1048 29.1666 34.0214 29.2916C33.9589 29.3958 33.8548 29.5 33.7714 29.6041C33.3756 29.9791 32.8339 30.2083 32.2923 30.2083Z"
     fill="#5B5561"
     id="path10" />
  <path
     d="M17.7083 37.5C17.4375 37.5 17.1667 37.4375 16.9167 37.3333C16.6667 37.2292 16.4375 37.0833 16.2292 36.8958C15.8542 36.5 15.625 35.9583 15.625 35.4166C15.625 35.1458 15.6875 34.875 15.7917 34.625C15.8958 34.3541 16.0417 34.125 16.2292 33.9375C17 33.1667 18.4167 33.1667 19.1875 33.9375C19.5625 34.3333 19.7917 34.875 19.7917 35.4166C19.7917 35.9583 19.5625 36.5 19.1875 36.8958C18.7917 37.2708 18.25 37.5 17.7083 37.5Z"
     fill="#5B5561"
     id="path12" />
  <path
     d="M24.9994 37.5C24.4577 37.5 23.9161 37.2708 23.5202 36.8958C23.1452 36.5 22.9161 35.9583 22.9161 35.4166C22.9161 35.1458 22.9786 34.875 23.0827 34.625C23.1869 34.3541 23.3327 34.125 23.5202 33.9375C24.2911 33.1667 25.7077 33.1667 26.4786 33.9375C26.6661 34.125 26.8119 34.3541 26.9161 34.625C27.0202 34.875 27.0827 35.1458 27.0827 35.4166C27.0827 35.9583 26.8536 36.5 26.4786 36.8958C26.0827 37.2708 25.5411 37.5 24.9994 37.5Z"
     fill="#5B5561"
     id="path14" />
  <path
     d="M32.2923 37.4996C31.7506 37.4996 31.2089 37.2704 30.8131 36.8954C30.6256 36.7079 30.4798 36.4788 30.3756 36.2079C30.2714 35.9579 30.2089 35.6871 30.2089 35.4162C30.2089 35.1454 30.2714 34.8746 30.3756 34.6246C30.4798 34.3537 30.6256 34.1246 30.8131 33.9371C31.2923 33.4579 32.0214 33.2287 32.6881 33.3746C32.8339 33.3954 32.9589 33.437 33.0839 33.4995C33.2089 33.5412 33.3339 33.6038 33.4589 33.6871C33.5631 33.7496 33.6673 33.8538 33.7714 33.9371C34.1464 34.3329 34.3756 34.8746 34.3756 35.4162C34.3756 35.9579 34.1464 36.4996 33.7714 36.8954C33.3756 37.2704 32.8339 37.4996 32.2923 37.4996Z"
     fill="#5B5561"
     id="path16" />
  <path
     d="M42.7077 20.5H7.29108C6.43691 20.5 5.72858 19.7917 5.72858 18.9375C5.72858 18.0833 6.43691 17.375 7.29108 17.375H42.7077C43.5619 17.375 44.2702 18.0833 44.2702 18.9375C44.2702 19.7917 43.5619 20.5 42.7077 20.5Z"
     fill="#5B5561"
     id="path18" />
  <path
     d="M33.3333 47.3962H16.6667C9.0625 47.3962 4.6875 43.0212 4.6875 35.417V17.7087C4.6875 10.1045 9.0625 5.72949 16.6667 5.72949H33.3333C40.9375 5.72949 45.3125 10.1045 45.3125 17.7087V35.417C45.3125 43.0212 40.9375 47.3962 33.3333 47.3962ZM16.6667 8.85449C10.7083 8.85449 7.8125 11.7503 7.8125 17.7087V35.417C7.8125 41.3753 10.7083 44.2712 16.6667 44.2712H33.3333C39.2917 44.2712 42.1875 41.3753 42.1875 35.417V17.7087C42.1875 11.7503 39.2917 8.85449 33.3333 8.85449H16.6667Z"
     fill="#5B5561"
     id="path20" />
</svg>
